<?xml version="1.0" encoding="utf-8" ?>
<svg baseProfile="tiny" height="60.0px" version="1.2" width="1040px" xmlns="http://www.w3.org/2000/svg" xmlns:ev="http://www.w3.org/2001/xml-events" xmlns:xlink="http://www.w3.org/1999/xlink"><defs /><rect fill="white" height="60.0" stroke="white" width="1040" x="0" y="0" /><line stroke="white" stroke-width="20.0" x1="520" x2="1020" y1="30.0" y2="30.0" /><line opacity="1" stroke="rgb(192,220,235)" stroke-width="20.0" x1="710.375" x2="895.0" y1="30.0" y2="30.0" /><line opacity="1" stroke="rgb(166,206,227)" stroke-width="20.0" x1="769.875" x2="854.5" y1="30.0" y2="30.0" /><polygon fill="white" points="796.375,20.0 804.375,20.0 800.375,22.0" /><polygon fill="white" points="796.375,40.0 804.375,40.0 800.375,38.0" /><line opacity="1" stroke="rgb(166,206,227)" stroke-width="10.0" x1="519.625" x2="521.625" y1="30.0" y2="30.0" /><line opacity="1" stroke="rgb(166,206,227)" stroke-width="10.0" x1="532.125" x2="534.125" y1="30.0" y2="30.0" /><line stroke="rgb(51,160,44)" stroke-width="20.0" x1="780.75" x2="784.75" y1="30.0" y2="30.0" /><text fill="rgb(66,82,90)" font-family="sans-serif" font-size="12px" text-anchor="middle" x="520.0" y="50.0">0</text><line opacity="0.5" stroke="rgb(66,82,90)" stroke-width="2" x1="582.5" x2="582.5" y1="45.0" y2="47.0" /><text fill="rgb(66,82,90)" font-family="sans-serif" font-size="12px" text-anchor="middle" x="645.0" y="50.0">1000</text><line opacity="0.5" stroke="rgb(66,82,90)" stroke-width="2" x1="707.5" x2="707.5" y1="45.0" y2="47.0" /><text fill="rgb(66,82,90)" font-family="sans-serif" font-size="12px" text-anchor="middle" x="895.0" y="50.0">3000</text><line opacity="0.5" stroke="rgb(66,82,90)" stroke-width="2" x1="957.5" x2="957.5" y1="45.0" y2="47.0" /><text fill="rgb(66,82,90)" font-family="sans-serif" font-size="12px" text-anchor="middle" x="1020.0" y="50.0">4000</text><text fill="rgb(66,82,90)" font-family="sans-serif" font-size="14px" text-anchor="start" x="10" y="30.0">Atabal, conductividad de entrada</text><text fill="rgb(51,160,44)" font-family="sans-serif" font-size="12px" text-anchor="middle" x="782.75" y="54.0">2102 μS/cm²</text></svg>