<?xml version="1.0" encoding="utf-8" ?>
<svg baseProfile="tiny" height="60.0px" version="1.2" width="1040px" xmlns="http://www.w3.org/2000/svg" xmlns:ev="http://www.w3.org/2001/xml-events" xmlns:xlink="http://www.w3.org/1999/xlink"><defs /><rect fill="white" height="60.0" stroke="white" width="1040" x="0" y="0" /><line stroke="white" stroke-width="20.0" x1="520" x2="1020" y1="30.0" y2="30.0" /><line opacity="1" stroke="rgb(192,220,235)" stroke-width="20.0" x1="738.375" x2="1152.5" y1="30.0" y2="30.0" /><line opacity="1" stroke="rgb(166,206,227)" stroke-width="20.0" x1="875.5" x2="1017.0" y1="30.0" y2="30.0" /><polygon fill="white" points="959.625,20.0 967.625,20.0 963.625,22.0" /><polygon fill="white" points="959.625,40.0 967.625,40.0 963.625,38.0" /><line opacity="1" stroke="rgb(166,206,227)" stroke-width="10.0" x1="519.625" x2="521.625" y1="30.0" y2="30.0" /><line opacity="1" stroke="rgb(166,206,227)" stroke-width="10.0" x1="535.875" x2="537.875" y1="30.0" y2="30.0" /><line stroke="rgb(51,160,44)" stroke-width="20.0" x1="1058.25" x2="1062.25" y1="30.0" y2="30.0" /><text fill="rgb(66,82,90)" font-family="sans-serif" font-size="12px" text-anchor="middle" x="520.0" y="50.0">0</text><line opacity="0.5" stroke="rgb(66,82,90)" stroke-width="2" x1="582.5" x2="582.5" y1="45.0" y2="47.0" /><text fill="rgb(66,82,90)" font-family="sans-serif" font-size="12px" text-anchor="middle" x="645.0" y="50.0">1000</text><line opacity="0.5" stroke="rgb(66,82,90)" stroke-width="2" x1="707.5" x2="707.5" y1="45.0" y2="47.0" /><text fill="rgb(66,82,90)" font-family="sans-serif" font-size="12px" text-anchor="middle" x="770.0" y="50.0">2000</text><line opacity="0.5" stroke="rgb(66,82,90)" stroke-width="2" x1="832.5" x2="832.5" y1="45.0" y2="47.0" /><text fill="rgb(66,82,90)" font-family="sans-serif" font-size="12px" text-anchor="middle" x="895.0" y="50.0">3000</text><line opacity="0.5" stroke="rgb(66,82,90)" stroke-width="2" x1="957.5" x2="957.5" y1="45.0" y2="47.0" /><text fill="rgb(66,82,90)" font-family="sans-serif" font-size="14px" text-anchor="start" x="10" y="30.0">Atabal, conductividad de entrada</text><text fill="rgb(51,160,44)" font-family="sans-serif" font-size="12px" text-anchor="middle" x="1060.25" y="54.0">4322 μS/cm²</text></svg>