<?xml version="1.0" encoding="utf-8" ?>
<svg baseProfile="tiny" height="70.0px" version="1.2" width="520px" xmlns="http://www.w3.org/2000/svg" xmlns:ev="http://www.w3.org/2001/xml-events" xmlns:xlink="http://www.w3.org/1999/xlink"><defs /><line opacity="0.1" stroke="white" stroke-width="20.0" x1="10" x2="500" y1="30.0" y2="30.0" /><line opacity="1" stroke="rgb(240,240,240)" stroke-width="20.0" x1="10.0" x2="191.3" y1="30.0" y2="30.0" /><line opacity="1" stroke="rgb(217,217,217)" stroke-width="20.0" x1="54.1" x2="147.2" y1="30.0" y2="30.0" /><text fill="black" font-family="sans-serif" font-size="9px" text-anchor="middle" x="10.0" y="54.0">0</text><line opacity="0.5" stroke="rgb(82,82,82)" stroke-width="2" x1="10.0" x2="10.0" y1="40.0" y2="42.0" /><text fill="black" font-family="sans-serif" font-size="9px" text-anchor="middle" x="50.8333333333" y="54.0">500</text><line opacity="0.5" stroke="rgb(82,82,82)" stroke-width="2" x1="50.8333" x2="50.8333" y1="40.0" y2="42.0" /><text fill="black" font-family="sans-serif" font-size="9px" text-anchor="middle" x="91.6666666667" y="54.0">1000</text><line opacity="0.5" stroke="rgb(82,82,82)" stroke-width="2" x1="91.6667" x2="91.6667" y1="40.0" y2="42.0" /><text fill="black" font-family="sans-serif" font-size="9px" text-anchor="middle" x="132.5" y="54.0">1500</text><line opacity="0.5" stroke="rgb(82,82,82)" stroke-width="2" x1="132.5" x2="132.5" y1="40.0" y2="42.0" /><line opacity="0.5" stroke="rgb(82,82,82)" stroke-width="2" x1="173.3333" x2="173.3333" y1="40.0" y2="42.0" /><line opacity="0.5" stroke="rgb(82,82,82)" stroke-width="2" x1="214.1667" x2="214.1667" y1="40.0" y2="42.0" /><text fill="black" font-family="sans-serif" font-size="9px" text-anchor="middle" x="255.0" y="54.0">3000</text><line opacity="0.5" stroke="rgb(82,82,82)" stroke-width="2" x1="255.0" x2="255.0" y1="40.0" y2="42.0" /><text fill="black" font-family="sans-serif" font-size="9px" text-anchor="middle" x="295.833333333" y="54.0">3500</text><line opacity="0.5" stroke="rgb(82,82,82)" stroke-width="2" x1="295.8333" x2="295.8333" y1="40.0" y2="42.0" /><text fill="black" font-family="sans-serif" font-size="9px" text-anchor="middle" x="336.666666667" y="54.0">4000</text><line opacity="0.5" stroke="rgb(82,82,82)" stroke-width="2" x1="336.6667" x2="336.6667" y1="40.0" y2="42.0" /><text fill="black" font-family="sans-serif" font-size="9px" text-anchor="middle" x="377.5" y="54.0">4500</text><line opacity="0.5" stroke="rgb(82,82,82)" stroke-width="2" x1="377.5" x2="377.5" y1="40.0" y2="42.0" /><text fill="black" font-family="sans-serif" font-size="9px" text-anchor="middle" x="418.333333333" y="54.0">5000</text><line opacity="0.5" stroke="rgb(82,82,82)" stroke-width="2" x1="418.3333" x2="418.3333" y1="40.0" y2="42.0" /><text fill="black" font-family="sans-serif" font-size="9px" text-anchor="middle" x="459.166666667" y="54.0">5500</text><line opacity="0.5" stroke="rgb(82,82,82)" stroke-width="2" x1="459.1667" x2="459.1667" y1="40.0" y2="42.0" /><text fill="black" font-family="sans-serif" font-size="9px" text-anchor="middle" x="500.0" y="54.0">6000</text><line opacity="0.5" stroke="rgb(82,82,82)" stroke-width="2" x1="500.0" x2="500.0" y1="40.0" y2="42.0" /><line stroke="rgb(0,0,0)" stroke-width="20.0" x1="189.3" x2="193.3" y1="30.0" y2="30.0" /><text fill="black" font-family="sans-serif" font-size="14px" text-anchor="middle" x="191.3" y="18.0">Otra muy bonita</text><text fill="black" font-family="sans-serif" font-size="9px" x="10" y="65.0">Datos semanales, ultimo dato la semana pasada<tspan fill="black" font-family="sans-serif" font-size="9px" /></text><text fill="black" font-family="sans-serif" font-size="14px" text-anchor="middle" x="191.3" y="54.0">2220 μS/cm²</text></svg>