<?xml version="1.0" encoding="utf-8" ?>
<svg baseProfile="tiny" height="60.0px" version="1.2" width="1040px" xmlns="http://www.w3.org/2000/svg" xmlns:ev="http://www.w3.org/2001/xml-events" xmlns:xlink="http://www.w3.org/1999/xlink"><defs /><rect fill="white" height="60.0" stroke="white" width="1040" x="0" y="0" /><line stroke="white" stroke-width="20.0" x1="520" x2="1020" y1="30.0" y2="30.0" /><line opacity="1" stroke="rgb(192,220,235)" stroke-width="20.0" x1="635.6643" x2="910.8982" y1="30.0" y2="30.0" /><line opacity="1" stroke="rgb(166,206,227)" stroke-width="20.0" x1="737.5439" x2="808.3835" y1="30.0" y2="30.0" /><polygon fill="white" points="765.3299,20.0 773.3299,20.0 769.3299,22.0" /><polygon fill="white" points="765.3299,40.0 773.3299,40.0 769.3299,38.0" /><line opacity="1" stroke="rgb(166,206,227)" stroke-width="10.0" x1="600.8221" x2="602.8221" y1="30.0" y2="30.0" /><line opacity="1" stroke="rgb(166,206,227)" stroke-width="10.0" x1="956.5" x2="958.5" y1="30.0" y2="30.0" /><line stroke="rgb(51,160,44)" stroke-width="20.0" x1="955.5" x2="959.5" y1="30.0" y2="30.0" /><text fill="rgb(66,82,90)" font-family="sans-serif" font-size="12px" text-anchor="middle" x="520.0" y="50.0">0</text><line opacity="0.5" stroke="rgb(66,82,90)" stroke-width="2" x1="582.5" x2="582.5" y1="45.0" y2="47.0" /><text fill="rgb(66,82,90)" font-family="sans-serif" font-size="12px" text-anchor="middle" x="645.0" y="50.0">1000</text><line opacity="0.5" stroke="rgb(66,82,90)" stroke-width="2" x1="707.5" x2="707.5" y1="45.0" y2="47.0" /><text fill="rgb(66,82,90)" font-family="sans-serif" font-size="12px" text-anchor="middle" x="770.0" y="50.0">2000</text><line opacity="0.5" stroke="rgb(66,82,90)" stroke-width="2" x1="832.5" x2="832.5" y1="45.0" y2="47.0" /><text fill="rgb(66,82,90)" font-family="sans-serif" font-size="12px" text-anchor="middle" x="895.0" y="50.0">3000</text><text fill="rgb(66,82,90)" font-family="sans-serif" font-size="12px" text-anchor="middle" x="1020.0" y="50.0">4000</text><text fill="rgb(66,82,90)" font-family="sans-serif" font-size="14px" text-anchor="start" x="10" y="30.0">Atabal, conductividad de entrada</text><text fill="rgb(51,160,44)" font-family="sans-serif" font-size="12px" text-anchor="middle" x="957.5" y="54.0">3500 μS/cm²</text></svg>