<?xml version="1.0" encoding="utf-8" ?>
<svg baseProfile="tiny" height="60.0px" version="1.2" width="530px" xmlns="http://www.w3.org/2000/svg" xmlns:ev="http://www.w3.org/2001/xml-events" xmlns:xlink="http://www.w3.org/1999/xlink"><defs /><rect fill="white" height="60.0" stroke="white" width="530" x="0" y="0" /><line stroke="white" stroke-width="20.0" x1="10" x2="510" y1="30.0" y2="30.0" /><line opacity="1" stroke="rgb(192,220,235)" stroke-width="20.0" x1="10.0" x2="195.0" y1="30.0" y2="30.0" /><line opacity="1" stroke="rgb(166,206,227)" stroke-width="20.0" x1="55.0" x2="150.0" y1="30.0" y2="30.0" /><polygon fill="white" points="98.5,20.0 106.5,20.0 102.5,22.0" /><polygon fill="white" points="98.5,40.0 106.5,40.0 102.5,38.0" /><line stroke="rgb(51,160,44)" stroke-width="20.0" x1="193.0" x2="197.0" y1="30.0" y2="30.0" /><text fill="rgb(66,82,90)" font-family="sans-serif" font-size="12px" text-anchor="middle" x="10.0" y="50.0">0</text><text fill="rgb(66,82,90)" font-family="sans-serif" font-size="12px" text-anchor="middle" x="510.0" y="50.0">6000</text><line opacity="0.5" stroke="rgb(66,82,90)" stroke-width="2" x1="10.0" x2="10.0" y1="45.0" y2="47.0" /><line opacity="0.5" stroke="rgb(66,82,90)" stroke-width="2" x1="51.6667" x2="51.6667" y1="45.0" y2="47.0" /><line opacity="0.5" stroke="rgb(66,82,90)" stroke-width="2" x1="93.3333" x2="93.3333" y1="45.0" y2="47.0" /><line opacity="0.5" stroke="rgb(66,82,90)" stroke-width="2" x1="135.0" x2="135.0" y1="45.0" y2="47.0" /><line opacity="0.5" stroke="rgb(66,82,90)" stroke-width="2" x1="176.6667" x2="176.6667" y1="45.0" y2="47.0" /><line opacity="0.5" stroke="rgb(66,82,90)" stroke-width="2" x1="218.3333" x2="218.3333" y1="45.0" y2="47.0" /><line opacity="0.5" stroke="rgb(66,82,90)" stroke-width="2" x1="260.0" x2="260.0" y1="45.0" y2="47.0" /><line opacity="0.5" stroke="rgb(66,82,90)" stroke-width="2" x1="301.6667" x2="301.6667" y1="45.0" y2="47.0" /><line opacity="0.5" stroke="rgb(66,82,90)" stroke-width="2" x1="343.3333" x2="343.3333" y1="45.0" y2="47.0" /><line opacity="0.5" stroke="rgb(66,82,90)" stroke-width="2" x1="385.0" x2="385.0" y1="45.0" y2="47.0" /><line opacity="0.5" stroke="rgb(66,82,90)" stroke-width="2" x1="426.6667" x2="426.6667" y1="45.0" y2="47.0" /><line opacity="0.5" stroke="rgb(66,82,90)" stroke-width="2" x1="468.3333" x2="468.3333" y1="45.0" y2="47.0" /><line opacity="0.5" stroke="rgb(66,82,90)" stroke-width="2" x1="510.0" x2="510.0" y1="45.0" y2="47.0" /><text fill="rgb(51,160,44)" font-family="sans-serif" font-size="12px" text-anchor="middle" x="195.0" y="54.0">Otra muy bonita - 2220 μS/cm² - semana pasada</text></svg>