<?xml version="1.0" encoding="utf-8" ?>
<svg baseProfile="tiny" height="70.0px" version="1.2" width="520px" xmlns="http://www.w3.org/2000/svg" xmlns:ev="http://www.w3.org/2001/xml-events" xmlns:xlink="http://www.w3.org/1999/xlink"><defs /><line opacity="0.1" stroke="white" stroke-width="20.0" x1="10" x2="500" y1="30.0" y2="30.0" /><line opacity="1" stroke="rgb(240,240,240)" stroke-width="20.0" x1="193.8098" x2="316.25" y1="30.0" y2="30.0" /><line opacity="1" stroke="rgb(217,217,217)" stroke-width="20.0" x1="210.2781" x2="297.8291" y1="30.0" y2="30.0" /><text fill="black" font-family="sans-serif" font-size="9px" text-anchor="middle" x="10.0" y="54.0">0</text><line opacity="0.5" stroke="rgb(82,82,82)" stroke-width="2" x1="10.0" x2="10.0" y1="40.0" y2="42.0" /><text fill="black" font-family="sans-serif" font-size="9px" text-anchor="middle" x="71.25" y="54.0">500</text><line opacity="0.5" stroke="rgb(82,82,82)" stroke-width="2" x1="71.25" x2="71.25" y1="40.0" y2="42.0" /><text fill="black" font-family="sans-serif" font-size="9px" text-anchor="middle" x="132.5" y="54.0">1000</text><line opacity="0.5" stroke="rgb(82,82,82)" stroke-width="2" x1="132.5" x2="132.5" y1="40.0" y2="42.0" /><line opacity="0.5" stroke="rgb(82,82,82)" stroke-width="2" x1="193.75" x2="193.75" y1="40.0" y2="42.0" /><line opacity="0.5" stroke="rgb(82,82,82)" stroke-width="2" x1="255.0" x2="255.0" y1="40.0" y2="42.0" /><text fill="black" font-family="sans-serif" font-size="9px" text-anchor="middle" x="316.25" y="54.0">2500</text><line opacity="0.5" stroke="rgb(82,82,82)" stroke-width="2" x1="316.25" x2="316.25" y1="40.0" y2="42.0" /><text fill="black" font-family="sans-serif" font-size="9px" text-anchor="middle" x="377.5" y="54.0">3000</text><line opacity="0.5" stroke="rgb(82,82,82)" stroke-width="2" x1="377.5" x2="377.5" y1="40.0" y2="42.0" /><text fill="black" font-family="sans-serif" font-size="9px" text-anchor="middle" x="438.75" y="54.0">3500</text><line opacity="0.5" stroke="rgb(82,82,82)" stroke-width="2" x1="438.75" x2="438.75" y1="40.0" y2="42.0" /><text fill="black" font-family="sans-serif" font-size="9px" text-anchor="middle" x="500.0" y="54.0">4000</text><line opacity="0.5" stroke="rgb(82,82,82)" stroke-width="2" x1="500.0" x2="500.0" y1="40.0" y2="42.0" /><line stroke="rgb(0,0,0)" stroke-width="20.0" x1="225.5456" x2="229.5456" y1="30.0" y2="30.0" /><text fill="black" font-family="sans-serif" font-size="14px" text-anchor="middle" x="227.545587721" y="18.0">Atabal, conductividad de entrada</text><text fill="black" font-family="sans-serif" font-size="9px" x="10" y="65.0">Datos semanales, ultimo dato la semana pasada<tspan fill="black" font-family="sans-serif" font-size="9px" /></text><text fill="black" font-family="sans-serif" font-size="14px" text-anchor="middle" x="227.545587721" y="54.0">1776 μS/cm²</text></svg>