<?xml version="1.0" encoding="utf-8" ?>
<svg baseProfile="tiny" height="60.0px" version="1.2" width="530px" xmlns="http://www.w3.org/2000/svg" xmlns:ev="http://www.w3.org/2001/xml-events" xmlns:xlink="http://www.w3.org/1999/xlink"><defs /><rect fill="white" height="60.0" stroke="white" width="530" x="0" y="0" /><line stroke="white" stroke-width="20.0" x1="10" x2="510" y1="30.0" y2="30.0" /><line opacity="1" stroke="rgb(192,220,235)" stroke-width="20.0" x1="10.0" x2="287.5" y1="30.0" y2="30.0" /><line opacity="1" stroke="rgb(166,206,227)" stroke-width="20.0" x1="77.5" x2="220.0" y1="30.0" y2="30.0" /><polygon fill="white" points="144.75,20.0 152.75,20.0 148.75,22.0" /><polygon fill="white" points="144.75,40.0 152.75,40.0 148.75,38.0" /><line stroke="rgb(51,160,44)" stroke-width="2" x1="67.5" x2="72.5" y1="25.0" y2="30.0" /><line stroke="rgb(51,160,44)" stroke-width="2" x1="72.5" x2="67.5" y1="30.0" y2="35.0" /><line stroke="rgb(51,160,44)" stroke-width="2" x1="390.0" x2="385.0" y1="25.0" y2="30.0" /><line stroke="rgb(51,160,44)" stroke-width="2" x1="385.0" x2="390.0" y1="30.0" y2="35.0" /><line stroke="rgb(51,160,44)" stroke-width="20.0" x1="285.5" x2="289.5" y1="30.0" y2="30.0" /><text fill="rgb(66,82,90)" font-family="sans-serif" font-size="12px" text-anchor="middle" x="10.0" y="50.0">0</text><line opacity="0.5" stroke="rgb(66,82,90)" stroke-width="2" x1="72.5" x2="72.5" y1="45.0" y2="47.0" /><text fill="rgb(66,82,90)" font-family="sans-serif" font-size="12px" text-anchor="middle" x="135.0" y="50.0">1000</text><line opacity="0.5" stroke="rgb(66,82,90)" stroke-width="2" x1="197.5" x2="197.5" y1="45.0" y2="47.0" /><text fill="rgb(66,82,90)" font-family="sans-serif" font-size="12px" text-anchor="middle" x="260.0" y="50.0">2000</text><line opacity="0.5" stroke="rgb(66,82,90)" stroke-width="2" x1="322.5" x2="322.5" y1="45.0" y2="47.0" /><text fill="rgb(66,82,90)" font-family="sans-serif" font-size="12px" text-anchor="middle" x="385.0" y="50.0">3000</text><line opacity="0.5" stroke="rgb(66,82,90)" stroke-width="2" x1="447.5" x2="447.5" y1="45.0" y2="47.0" /><text fill="rgb(66,82,90)" font-family="sans-serif" font-size="12px" text-anchor="middle" x="510.0" y="50.0">4000</text><text fill="rgb(66,82,90)" font-family="sans-serif" font-size="14px" text-anchor="start" x="10" y="18.0">Atabal, conductividad de salida - 2220 μS/cm² - semana pasada</text></svg>