<?xml version="1.0" encoding="utf-8" standalone="no"?>
<!DOCTYPE svg PUBLIC "-//W3C//DTD SVG 1.1//EN"
  "http://www.w3.org/Graphics/SVG/1.1/DTD/svg11.dtd">
<!-- Created with matplotlib (http://matplotlib.org/) -->
<svg height="50pt" version="1.1" viewBox="0 0 144 50" width="144pt" xmlns="http://www.w3.org/2000/svg" xmlns:xlink="http://www.w3.org/1999/xlink">
 <defs>
  <style type="text/css">
*{stroke-linecap:butt;stroke-linejoin:round;stroke-miterlimit:100000;}
  </style>
 </defs>
 <g id="figure_1">
  <g id="patch_1">
   <path d="M 0 50.4 
L 144 50.4 
L 144 0 
L 0 0 
z
" style="fill:#ffffff;"/>
  </g>
  <g id="axes_1">
   <g id="patch_2">
    <path d="M 6.48 34.52 
L 118.22 34.52 
L 118.22 9.18 
L 6.48 9.18 
z
" style="fill:#ffffff;"/>
   </g>
   <g id="line2d_1">
    <path clip-path="url(#p3fc6f1bab7)" d="M 6.786135 34.488325 
L 7.857614 33.664775 
L 8.929094 23.579455 
L 10.000573 16.1485 
L 11.072053 19.487045 
L 12.143532 14.596425 
L 13.215012 15.70505 
L 14.286491 16.99739 
L 15.357971 15.014535 
L 16.42945 19.29066 
L 17.50093 18.904225 
L 18.572409 13.46246 
L 19.643888 20.703365 
L 20.715368 16.17384 
L 21.786847 15.3883 
L 22.858327 13.544815 
L 23.929806 14.381035 
L 25.001286 17.50419 
L 26.072765 19.195635 
L 27.144245 14.15931 
L 28.215724 19.15129 
L 29.287203 19.70877 
L 30.358683 19.39202 
L 31.430162 12.277815 
L 32.501642 20.196565 
L 33.573121 15.559345 
L 34.644601 13.20906 
L 35.71608 11.77735 
L 36.78756 13.291415 
L 37.859039 18.47978 
L 38.930519 17.371155 
L 40.001998 10.58637 
L 41.073477 14.93218 
L 42.144957 11.226205 
L 43.216436 15.686045 
L 44.287916 10.85244 
L 45.359395 15.19825 
L 46.430875 10.770085 
L 47.502354 15.97112 
L 48.573834 16.750325 
L 49.645313 8.375455 
L 50.716793 11.872375 
L 51.788272 14.32402 
L 52.859751 14.887835 
L 53.931231 11.43526 
L 55.00271 7.68494 
L 56.07419 12.39818 
L 57.145669 16.08515 
L 58.217149 10.820765 
L 59.288628 7.298505 
L 60.360108 15.47699 
L 61.431587 8.616185 
L 62.503067 10.67506 
L 63.574546 6.842385 
L 64.646025 11.150185 
L 65.717505 14.22266 
L 66.788984 12.75294 
L 67.860464 10.3203 
L 68.931943 13.899575 
L 70.003423 8.324775 
L 71.074902 4.675815 
L 72.146382 5.29031 
L 73.217861 5.98716 
L 74.28934 5.359995 
L 75.36082 6.246895 
L 76.432299 6.35459 
L 77.503779 9.62345 
L 78.575258 3.370805 
L 79.646738 4.701155 
L 80.718217 3.74457 
L 81.789697 9.287695 
L 82.861176 3.484835 
L 83.932656 10.491345 
L 85.004135 7.247825 
L 86.075614 4.016975 
" style="fill:none;stroke:#000000;stroke-linecap:square;"/>
   </g>
   <g id="patch_3">
    <path d="M 6.48 9.18 
L 118.22 9.18 
" style="fill:none;"/>
   </g>
   <g id="patch_4">
    <path d="M 118.22 34.52 
L 118.22 9.18 
" style="fill:none;stroke:#808080;stroke-linecap:square;stroke-linejoin:miter;"/>
   </g>
   <g id="patch_5">
    <path d="M 6.48 34.52 
L 118.22 34.52 
" style="fill:none;stroke:#808080;stroke-linecap:square;stroke-linejoin:miter;"/>
   </g>
   <g id="patch_6">
    <path d="M 6.48 34.52 
L 6.48 9.18 
" style="fill:none;"/>
   </g>
   <g id="matplotlib.axis_1">
    <g id="xtick_1">
     <g id="line2d_2">
      <defs>
       <path d="M 0 0 
L 0 -4 
" id="m4ff5981fc2" style="stroke:#ffffff;stroke-width:0.5;"/>
      </defs>
      <g>
       <use style="fill:#ffffff;stroke:#ffffff;stroke-width:0.5;" x="57.4664690435" xlink:href="#m4ff5981fc2" y="34.52"/>
      </g>
     </g>
     <g id="line2d_3">
      <defs>
       <path d="M 0 0 
L 0 4 
" id="m4dee912757" style="stroke:#ffffff;stroke-width:0.5;"/>
      </defs>
      <g>
       <use style="fill:#ffffff;stroke:#ffffff;stroke-width:0.5;" x="57.4664690435" xlink:href="#m4dee912757" y="9.18"/>
      </g>
     </g>
     <g id="text_1">
      <!-- D15 -->
      <defs>
       <path d="M 12.40625 8.296875 
L 28.515625 8.296875 
L 28.515625 63.921875 
L 10.984375 60.40625 
L 10.984375 69.390625 
L 28.421875 72.90625 
L 38.28125 72.90625 
L 38.28125 8.296875 
L 54.390625 8.296875 
L 54.390625 0 
L 12.40625 0 
z
" id="BitstreamVeraSans-Roman-31"/>
       <path d="M 19.671875 64.796875 
L 19.671875 8.109375 
L 31.59375 8.109375 
Q 46.6875 8.109375 53.6875 14.9375 
Q 60.6875 21.78125 60.6875 36.53125 
Q 60.6875 51.171875 53.6875 57.984375 
Q 46.6875 64.796875 31.59375 64.796875 
z
M 9.8125 72.90625 
L 30.078125 72.90625 
Q 51.265625 72.90625 61.171875 64.09375 
Q 71.09375 55.28125 71.09375 36.53125 
Q 71.09375 17.671875 61.125 8.828125 
Q 51.171875 0 30.078125 0 
L 9.8125 0 
z
" id="BitstreamVeraSans-Roman-44"/>
       <path d="M 10.796875 72.90625 
L 49.515625 72.90625 
L 49.515625 64.59375 
L 19.828125 64.59375 
L 19.828125 46.734375 
Q 21.96875 47.46875 24.109375 47.828125 
Q 26.265625 48.1875 28.421875 48.1875 
Q 40.625 48.1875 47.75 41.5 
Q 54.890625 34.8125 54.890625 23.390625 
Q 54.890625 11.625 47.5625 5.09375 
Q 40.234375 -1.421875 26.90625 -1.421875 
Q 22.3125 -1.421875 17.546875 -0.640625 
Q 12.796875 0.140625 7.71875 1.703125 
L 7.71875 11.625 
Q 12.109375 9.234375 16.796875 8.0625 
Q 21.484375 6.890625 26.703125 6.890625 
Q 35.15625 6.890625 40.078125 11.328125 
Q 45.015625 15.765625 45.015625 23.390625 
Q 45.015625 31 40.078125 35.4375 
Q 35.15625 39.890625 26.703125 39.890625 
Q 22.75 39.890625 18.8125 39.015625 
Q 14.890625 38.140625 10.796875 36.28125 
z
" id="BitstreamVeraSans-Roman-35"/>
      </defs>
      <g transform="translate(51.3389690435 43.0790625)scale(0.06 -0.06)">
       <use xlink:href="#BitstreamVeraSans-Roman-44"/>
       <use x="77.001953125" xlink:href="#BitstreamVeraSans-Roman-31"/>
       <use x="140.625" xlink:href="#BitstreamVeraSans-Roman-35"/>
      </g>
     </g>
    </g>
    <g id="xtick_2">
     <g id="line2d_4">
      <g>
       <use style="fill:#ffffff;stroke:#ffffff;stroke-width:0.5;" x="113.489537537" xlink:href="#m4ff5981fc2" y="34.52"/>
      </g>
     </g>
     <g id="line2d_5">
      <g>
       <use style="fill:#ffffff;stroke:#ffffff;stroke-width:0.5;" x="113.489537537" xlink:href="#m4dee912757" y="9.18"/>
      </g>
     </g>
     <g id="text_2">
      <!-- D16 -->
      <defs>
       <path d="M 33.015625 40.375 
Q 26.375 40.375 22.484375 35.828125 
Q 18.609375 31.296875 18.609375 23.390625 
Q 18.609375 15.53125 22.484375 10.953125 
Q 26.375 6.390625 33.015625 6.390625 
Q 39.65625 6.390625 43.53125 10.953125 
Q 47.40625 15.53125 47.40625 23.390625 
Q 47.40625 31.296875 43.53125 35.828125 
Q 39.65625 40.375 33.015625 40.375 
M 52.59375 71.296875 
L 52.59375 62.3125 
Q 48.875 64.0625 45.09375 64.984375 
Q 41.3125 65.921875 37.59375 65.921875 
Q 27.828125 65.921875 22.671875 59.328125 
Q 17.53125 52.734375 16.796875 39.40625 
Q 19.671875 43.65625 24.015625 45.921875 
Q 28.375 48.1875 33.59375 48.1875 
Q 44.578125 48.1875 50.953125 41.515625 
Q 57.328125 34.859375 57.328125 23.390625 
Q 57.328125 12.15625 50.6875 5.359375 
Q 44.046875 -1.421875 33.015625 -1.421875 
Q 20.359375 -1.421875 13.671875 8.265625 
Q 6.984375 17.96875 6.984375 36.375 
Q 6.984375 53.65625 15.1875 63.9375 
Q 23.390625 74.21875 37.203125 74.21875 
Q 40.921875 74.21875 44.703125 73.484375 
Q 48.484375 72.75 52.59375 71.296875 
" id="BitstreamVeraSans-Roman-36"/>
      </defs>
      <g transform="translate(107.362037537 43.0790625)scale(0.06 -0.06)">
       <use xlink:href="#BitstreamVeraSans-Roman-44"/>
       <use x="77.001953125" xlink:href="#BitstreamVeraSans-Roman-31"/>
       <use x="140.625" xlink:href="#BitstreamVeraSans-Roman-36"/>
      </g>
     </g>
    </g>
   </g>
   <g id="matplotlib.axis_2">
    <g id="ytick_1">
     <g id="line2d_6">
      <defs>
       <path d="M 0 0 
L -4 0 
" id="meb1d68651f" style="stroke:#ffffff;stroke-width:0.5;"/>
      </defs>
      <g>
       <use style="fill:#ffffff;stroke:#ffffff;stroke-width:0.5;" x="118.22" xlink:href="#meb1d68651f" y="34.52"/>
      </g>
     </g>
     <g id="text_3">
      <!-- 0 -->
      <defs>
       <path d="M 31.78125 66.40625 
Q 24.171875 66.40625 20.328125 58.90625 
Q 16.5 51.421875 16.5 36.375 
Q 16.5 21.390625 20.328125 13.890625 
Q 24.171875 6.390625 31.78125 6.390625 
Q 39.453125 6.390625 43.28125 13.890625 
Q 47.125 21.390625 47.125 36.375 
Q 47.125 51.421875 43.28125 58.90625 
Q 39.453125 66.40625 31.78125 66.40625 
M 31.78125 74.21875 
Q 44.046875 74.21875 50.515625 64.515625 
Q 56.984375 54.828125 56.984375 36.375 
Q 56.984375 17.96875 50.515625 8.265625 
Q 44.046875 -1.421875 31.78125 -1.421875 
Q 19.53125 -1.421875 13.0625 8.265625 
Q 6.59375 17.96875 6.59375 36.375 
Q 6.59375 54.828125 13.0625 64.515625 
Q 19.53125 74.21875 31.78125 74.21875 
" id="BitstreamVeraSans-Roman-30"/>
      </defs>
      <g transform="translate(122.22 36.175625)scale(0.06 -0.06)">
       <use xlink:href="#BitstreamVeraSans-Roman-30"/>
      </g>
     </g>
    </g>
    <g id="ytick_2">
     <g id="line2d_7">
      <g>
       <use style="fill:#ffffff;stroke:#ffffff;stroke-width:0.5;" x="118.22" xlink:href="#meb1d68651f" y="31.3525"/>
      </g>
     </g>
    </g>
    <g id="ytick_3">
     <g id="line2d_8">
      <g>
       <use style="fill:#ffffff;stroke:#ffffff;stroke-width:0.5;" x="118.22" xlink:href="#meb1d68651f" y="28.185"/>
      </g>
     </g>
    </g>
    <g id="ytick_4">
     <g id="line2d_9">
      <g>
       <use style="fill:#ffffff;stroke:#ffffff;stroke-width:0.5;" x="118.22" xlink:href="#meb1d68651f" y="25.0175"/>
      </g>
     </g>
    </g>
    <g id="ytick_5">
     <g id="line2d_10">
      <g>
       <use style="fill:#ffffff;stroke:#ffffff;stroke-width:0.5;" x="118.22" xlink:href="#meb1d68651f" y="21.85"/>
      </g>
     </g>
    </g>
    <g id="ytick_6">
     <g id="line2d_11">
      <g>
       <use style="fill:#ffffff;stroke:#ffffff;stroke-width:0.5;" x="118.22" xlink:href="#meb1d68651f" y="18.6825"/>
      </g>
     </g>
    </g>
    <g id="ytick_7">
     <g id="line2d_12">
      <g>
       <use style="fill:#ffffff;stroke:#ffffff;stroke-width:0.5;" x="118.22" xlink:href="#meb1d68651f" y="15.515"/>
      </g>
     </g>
    </g>
    <g id="ytick_8">
     <g id="line2d_13">
      <g>
       <use style="fill:#ffffff;stroke:#ffffff;stroke-width:0.5;" x="118.22" xlink:href="#meb1d68651f" y="12.3475"/>
      </g>
     </g>
    </g>
    <g id="ytick_9">
     <g id="line2d_14">
      <g>
       <use style="fill:#ffffff;stroke:#ffffff;stroke-width:0.5;" x="118.22" xlink:href="#meb1d68651f" y="9.18"/>
      </g>
     </g>
     <g id="text_4">
      <!-- 4000 -->
      <defs>
       <path d="M 37.796875 64.3125 
L 12.890625 25.390625 
L 37.796875 25.390625 
z
M 35.203125 72.90625 
L 47.609375 72.90625 
L 47.609375 25.390625 
L 58.015625 25.390625 
L 58.015625 17.1875 
L 47.609375 17.1875 
L 47.609375 0 
L 37.796875 0 
L 37.796875 17.1875 
L 4.890625 17.1875 
L 4.890625 26.703125 
z
" id="BitstreamVeraSans-Roman-34"/>
      </defs>
      <g transform="translate(122.22 10.835625)scale(0.06 -0.06)">
       <use xlink:href="#BitstreamVeraSans-Roman-34"/>
       <use x="63.623046875" xlink:href="#BitstreamVeraSans-Roman-30"/>
       <use x="127.24609375" xlink:href="#BitstreamVeraSans-Roman-30"/>
       <use x="190.869140625" xlink:href="#BitstreamVeraSans-Roman-30"/>
      </g>
     </g>
    </g>
   </g>
  </g>
 </g>
 <defs>
  <clipPath id="p3fc6f1bab7">
   <rect height="25.34" width="111.74" x="6.48" y="9.18"/>
  </clipPath>
 </defs>
</svg>
