<?xml version="1.0" encoding="utf-8" ?>
<svg baseProfile="tiny" height="60.0px" version="1.2" width="530px" xmlns="http://www.w3.org/2000/svg" xmlns:ev="http://www.w3.org/2001/xml-events" xmlns:xlink="http://www.w3.org/1999/xlink"><defs /><rect fill="white" height="60.0" stroke="white" width="530" x="0" y="0" /><line stroke="white" stroke-width="20.0" x1="10" x2="510" y1="30.0" y2="30.0" /><line opacity="1" stroke="rgb(192,220,235)" stroke-width="20.0" x1="204.75" x2="384.5" y1="30.0" y2="30.0" /><line opacity="1" stroke="rgb(166,206,227)" stroke-width="20.0" x1="237.875" x2="338.125" y1="30.0" y2="30.0" /><polygon fill="white" points="278.25,20.0 286.25,20.0 282.25,22.0" /><polygon fill="white" points="278.25,40.0 286.25,40.0 282.25,38.0" /><line opacity="1" stroke="rgb(166,206,227)" stroke-width="10.0" x1="9.625" x2="11.625" y1="30.0" y2="30.0" /><line opacity="1" stroke="rgb(166,206,227)" stroke-width="10.0" x1="22.125" x2="24.125" y1="30.0" y2="30.0" /><line stroke="rgb(51,160,44)" stroke-width="20.0" x1="335.0" x2="339.0" y1="30.0" y2="30.0" /><text fill="rgb(66,82,90)" font-family="sans-serif" font-size="12px" text-anchor="middle" x="10.0" y="50.0">0</text><line opacity="0.5" stroke="rgb(66,82,90)" stroke-width="2" x1="72.5" x2="72.5" y1="45.0" y2="47.0" /><text fill="rgb(66,82,90)" font-family="sans-serif" font-size="12px" text-anchor="middle" x="135.0" y="50.0">1000</text><line opacity="0.5" stroke="rgb(66,82,90)" stroke-width="2" x1="197.5" x2="197.5" y1="45.0" y2="47.0" /><text fill="rgb(66,82,90)" font-family="sans-serif" font-size="12px" text-anchor="middle" x="260.0" y="50.0">2000</text><line opacity="0.5" stroke="rgb(66,82,90)" stroke-width="2" x1="322.5" x2="322.5" y1="45.0" y2="47.0" /><text fill="rgb(66,82,90)" font-family="sans-serif" font-size="12px" text-anchor="middle" x="385.0" y="50.0">3000</text><line opacity="0.5" stroke="rgb(66,82,90)" stroke-width="2" x1="447.5" x2="447.5" y1="45.0" y2="47.0" /><text fill="rgb(66,82,90)" font-family="sans-serif" font-size="12px" text-anchor="middle" x="510.0" y="50.0">4000</text><text fill="rgb(66,82,90)" font-family="sans-serif" font-size="14px" text-anchor="start" x="10" y="18.0">Atabal, conductividad de entrada - 2616 μS/cm² - semana pasada</text></svg>